
<svg width="394px" height="374px" viewBox="443 197 394 374" version="1.1" xmlns="http://www.w3.org/2000/svg" xmlns:xlink="http://www.w3.org/1999/xlink" class="star-start">
    <defs>
        <radialGradient cx="50%" cy="50%" fx="50%" fy="50%" r="93.3287208%" id="radialGradient-1">
            <stop stop-color="#090F28" offset="0%"></stop>
            <stop stop-color="#656060" offset="100%"></stop>
        </radialGradient>
        <circle id="path-2" cx="197.5" cy="185.5" r="185.5"></circle>
        <mask id="mask-3" maskContentUnits="userSpaceOnUse" maskUnits="objectBoundingBox" x="-1" y="-1" width="373" height="373">
            <rect x="11" y="-1" width="373" height="373" fill="white"></rect>
            <use xlink:href="#path-2" fill="black"></use>
        </mask>
        <radialGradient cx="50%" cy="50%" fx="50%" fy="50%" r="99.2213809%" id="radialGradient-4">
            <stop stop-color="#50525F" offset="0%"></stop>
            <stop stop-color="#B6B6B6" offset="100%"></stop>
        </radialGradient>
        <linearGradient x1="14.6520639%" y1="12.4624756%" x2="85.4222208%" y2="77.340502%" id="linearGradient-5">
            <stop stop-color="#F4E107" offset="0%"></stop>
            <stop stop-color="#C2B41F" stop-opacity="0.222854393" offset="100%"></stop>
        </linearGradient>
        <circle id="path-6" cx="197" cy="191" r="98"></circle>
        <mask id="mask-7" maskContentUnits="userSpaceOnUse" maskUnits="objectBoundingBox" x="0" y="0" width="196" height="196" fill="white">
            <use xlink:href="#path-6"></use>
        </mask>
        <polygon id="path-8" points="118.173188 240.360478 0.00370089217 240.360478 0.00370089217 0.175242918 118.173188 0.175242918 118.173188 240.360478"></polygon>
        <polygon id="path-10" points="118.173188 240.360478 0.00370089217 240.360478 0.00370089217 0.175242918 118.173188 0.175242918 118.173188 240.360478"></polygon>
        <polygon id="path-12" points="118.173188 240.360478 0.00370089217 240.360478 0.00370089217 0.175242918 118.173188 0.175242918 118.173188 240.360478"></polygon>
        <polygon id="path-14" points="118.173188 240.360478 0.00370089217 240.360478 0.00370089217 0.175242918 118.173188 0.175242918 118.173188 240.360478"></polygon>
        <polygon id="path-16" points="118.173188 240.360478 0.00370089217 240.360478 0.00370089217 0.175242918 118.173188 0.175242918 118.173188 240.360478"></polygon>
        <polygon id="path-18" points="118.173188 240.360478 0.00370089217 240.360478 0.00370089217 0.175242918 118.173188 0.175242918 118.173188 240.360478"></polygon>
        <polygon id="path-20" points="118.173188 240.360478 0.00370089217 240.360478 0.00370089217 0.175242918 118.173188 0.175242918 118.173188 240.360478"></polygon>
        <polygon id="path-22" points="118.173188 240.360478 0.00370089217 240.360478 0.00370089217 0.175242918 118.173188 0.175242918 118.173188 240.360478"></polygon>
        <polygon id="path-24" points="118.173188 240.360478 0.00370089217 240.360478 0.00370089217 0.175242918 118.173188 0.175242918 118.173188 240.360478"></polygon>
        <polygon id="path-26" points="118.173188 240.360478 0.00370089217 240.360478 0.00370089217 0.175242918 118.173188 0.175242918 118.173188 240.360478"></polygon>
        <polygon id="path-28" points="118.173188 240.360478 0.00370089217 240.360478 0.00370089217 0.175242918 118.173188 0.175242918 118.173188 240.360478"></polygon>
        <polygon id="path-30" points="118.173188 240.360478 0.00370089217 240.360478 0.00370089217 0.175242918 118.173188 0.175242918 118.173188 240.360478"></polygon>
        <polygon id="path-32" points="118.173188 240.360478 0.00370089217 240.360478 0.00370089217 0.175242918 118.173188 0.175242918 118.173188 240.360478"></polygon>
        <polygon id="path-34" points="118.173188 240.360478 0.00370089217 240.360478 0.00370089217 0.175242918 118.173188 0.175242918 118.173188 240.360478"></polygon>
        <polygon id="path-36" points="0.00370089217 236.284638 0.00370089217 0.17227129 118.173188 0.17227129 118.173188 236.284638"></polygon>
        <polygon id="path-38" points="118.173188 240.360478 0.00370089217 240.360478 0.00370089217 0.175242918 118.173188 0.175242918 118.173188 240.360478"></polygon>
    </defs>
    <g id="Animation" stroke="none" stroke-width="1" fill="none" fill-rule="evenodd" transform="translate(443.000000, 198.000000)">
        <g id="external_star" style="mix-blend-mode: multiply;" transform="translate(0.000000, 25.000000)"></g>
        <circle id="Oval" fill-opacity="0.660000026" fill="url(#radialGradient-1)" cx="197" cy="189" r="128"></circle>
        <circle id="Oval" fill-opacity="0.4" fill="url(#radialGradient-1)" cx="197.5" cy="185.5" r="185.5"></circle>
        <path d="M327.424329,290.733262 C324.830116,293.382663 324.743298,297.227622 327.907145,300.325565 C330.993826,303.347949 334.653371,302.749373 336.819412,300.537252 C337.92762,299.405469 338.223428,298.485894 338.339716,297.440923 L336.307651,295.451187 L332.806724,299.026592 L328.922651,295.223427 L336.831221,287.146612 L345.371037,295.50854 C345.196872,298.310671 343.935934,301.8625 340.787618,305.077793 C335.649566,310.32515 328.500353,310.731339 323.098662,305.442168 C318.005638,300.455235 317.185213,292.648493 322.701063,287.015301 C325.295275,284.3659 328.43823,283.059958 330.82666,282.627504 L333.249915,287.922565 L333.123982,288.051177 C331.216775,288.249451 329.036266,289.087033 327.424329,290.733262 Z M362.60796,273.122806 L362.75465,273.227123 L358.373355,279.388117 L346.896839,278.692295 L346.625616,279.07369 L354.576233,284.727646 L350.653932,290.243204 L330.704044,276.056154 L336.003324,268.604284 C339.38318,263.851517 343.838067,262.867119 347.270621,265.308126 C350.057738,267.290141 350.900683,270.142497 350.186739,272.947888 L362.60796,273.122806 Z M343.864016,271.278763 C342.573141,270.360777 341.125775,270.656747 340.166063,272.006298 L338.997718,273.64923 L343.193062,276.632683 L344.382271,274.960413 C345.25853,273.728214 345.330919,272.321928 343.864016,271.278763 Z M371.21863,253.443878 L367.085545,253.054238 L363.356595,260.285381 L366.103698,263.362702 L362.96874,269.441981 L345.550761,249.807128 L348.190726,244.687735 L374.353588,247.364598 L371.21863,253.443878 Z M354.53233,251.319867 L359.671122,256.278609 L361.667596,252.407068 L354.680828,251.031901 L354.53233,251.319867 Z M352.558489,229.906602 L366.914723,229.896033 L366.961566,229.759865 L355.603246,221.055667 L358.00392,214.077045 L377.990656,231.231613 L376.468278,235.65708 L350.157815,236.885224 L352.558489,229.906602 Z M357.699137,204.754568 L381.78106,209.151316 L380.565488,215.809259 L356.483565,211.412511 L357.699137,204.754568 Z M365.758386,181.544512 L359.81261,180.94424 L357.859919,200.28592 L363.805695,200.886192 L364.442127,194.582237 L382.852542,196.44091 L383.532368,189.707139 L365.121953,187.848467 L365.758386,181.544512 Z M358.223773,172.617523 L358.425351,179.814701 L372.298996,171.106867 L382.662932,170.816593 L382.473448,164.051247 L372.109512,164.34152 L357.770221,156.423873 L357.971799,163.621051 L366.302568,167.889488 L358.223773,172.617523 Z" id="gravity" fill="#FFFFFF"></path>
        <use id="Oval" stroke="" mask="url(#mask-3)" stroke-width="2" xlink:href="#path-2"></use>
        <use id="Oval" stroke="url(#linearGradient-5)" mask="url(#mask-7)" stroke-width="2" fill-opacity="0.660000026" fill="url(#radialGradient-4)" transform="translate(197.000000, 191.000000) rotate(91.000000) translate(-197.000000, -191.000000) " xlink:href="#path-6"></use>
        <path d="M251.566093,267.644772 C251.635671,271.519618 250.239081,274.147727 247.376283,275.52918 C245.454942,276.456329 243.488729,276.505024 241.477584,275.675267 C239.456496,274.873994 237.912865,273.368609 236.846643,271.159067 C235.734064,268.853458 235.478718,266.655346 236.080596,264.564666 C236.682474,262.473985 237.963278,260.955822 239.923046,260.010129 C242.689777,258.675034 245.447579,258.990497 248.196536,260.956528 L246.115292,263.417606 C244.471884,262.220897 242.852847,262.007312 241.258134,262.776846 C240.27825,263.249692 239.627236,264.084956 239.305072,265.282663 C238.94247,266.642008 239.141298,268.109408 239.90156,269.684907 C240.615465,271.16434 241.617278,272.185039 242.907029,272.747035 C244.064298,273.230837 245.113645,273.245586 246.055102,272.791283 C247.688242,272.003206 248.465596,270.325304 248.387189,267.757525 L251.566093,267.644772 Z M265.49835,251.494827 C267.044931,253.534864 267.615063,255.699389 267.208764,257.988466 C266.823025,260.128101 265.686655,261.913185 263.799621,263.343773 C261.912586,264.774361 259.895446,265.379998 257.748139,265.160701 C255.434389,264.933733 253.504252,263.800247 251.957671,261.76021 C250.449754,259.771173 249.813677,257.643256 250.049422,255.376395 C250.285167,253.109534 251.414541,251.209286 253.437578,249.675592 C255.460615,248.141899 257.618695,247.563267 259.911885,247.939678 C262.128297,248.320753 263.990433,249.505791 265.49835,251.494827 Z M262.769814,253.563369 C261.764536,252.237345 260.572148,251.441377 259.192613,251.175442 C257.800191,250.892506 256.500488,251.208564 255.293466,252.123625 C254.086444,253.038685 253.433196,254.189802 253.333704,255.577009 C253.217211,256.977104 253.668041,258.348643 254.686207,259.691667 C255.665708,260.983691 256.857821,261.726327 258.26258,261.919597 C259.590561,262.117531 260.824044,261.784749 261.963065,260.921241 C263.136086,260.031957 263.808666,258.90634 263.980823,257.544358 C264.152981,256.182376 263.749315,254.855393 262.769814,253.563369 Z M268.466882,237.096023 C266.060768,240.174055 266.07969,242.745888 268.523651,244.811598 L274.926796,250.223731 L272.819783,252.716558 L260.233448,242.078205 L262.340461,239.585377 L263.929028,240.928082 C263.773075,239.790676 263.882756,238.752108 264.258073,237.812349 C264.583347,236.997891 265.179775,236.077444 266.047373,235.050981 L268.466882,237.096023 Z M284.474577,227.118902 C286.125079,230.392342 286.169199,233.276673 284.606939,235.771982 C283.384301,237.724832 281.716868,238.820273 279.604591,239.058337 C277.580523,239.276118 275.492644,238.711434 273.340892,237.364268 C271.080648,235.949177 269.686782,234.195583 269.15925,232.103434 C268.654204,230.17638 268.962052,228.317825 270.082804,226.527712 C271.146952,224.828008 272.632311,223.782175 274.538925,223.39018 C276.533747,222.977902 278.534677,223.400056 280.541773,224.656657 L281.816544,225.454764 L275.82225,235.029108 C278.708913,236.408502 280.769193,236.112738 282.003152,234.141806 C282.931451,232.659086 282.811866,230.860124 281.644393,228.744865 L284.474577,227.118902 Z M277.307582,226.747009 C275.143885,226.222962 273.60357,226.69325 272.686591,228.157888 C271.690368,229.749099 271.894857,231.412449 273.300065,233.147987 L277.307582,226.747009 Z M291.444301,196.709644 C294.074395,199.263497 295.059177,201.974866 294.398674,204.84383 C293.881759,207.089107 292.664151,208.669536 290.745815,209.585163 C288.904206,210.452781 286.746453,210.601805 284.27249,210.032241 C281.67379,209.43396 279.783167,208.232503 278.600564,206.427834 C277.493191,204.771835 277.176429,202.914778 277.650268,200.856607 C278.100176,198.902385 279.161938,197.42837 280.835585,196.434518 C282.58596,195.392655 284.61494,195.137365 286.922585,195.668639 L288.388245,196.006068 L285.853937,207.014106 C289.032954,207.373835 290.883285,206.42068 291.404987,204.154613 C291.797459,202.449866 291.096243,200.788884 289.301316,199.171617 L291.444301,196.709644 Z M284.549641,198.701575 C282.333524,198.913793 281.031642,199.861867 280.643956,201.545824 C280.222765,203.375309 280.959878,204.880371 282.855316,206.061057 L284.549641,198.701575 Z M295.197922,177.078704 L295.101699,180.341285 L285.665802,180.062992 C284.109137,180.017082 282.981145,180.271936 282.281791,180.827564 C281.603132,181.405144 281.24557,182.312321 281.209093,183.549123 C281.149975,185.553595 282.082132,187.235123 284.005592,188.593757 L294.848877,188.913558 L294.752653,192.176139 L278.151872,191.686532 L278.248095,188.423951 L280.00733,188.475836 C278.711705,186.815578 278.090945,185.068536 278.145032,183.234657 C278.275846,178.79923 280.814818,176.654503 285.762025,176.800411 L295.197922,177.078704 Z M285.836363,158.352363 C289.267105,159.644482 291.252079,161.737612 291.791343,164.631816 C292.213375,166.896845 291.727611,168.831879 290.334034,170.436975 C288.991652,171.96743 287.072627,172.965151 284.5769,173.430169 C281.955338,173.918633 279.742325,173.571464 277.937793,172.388652 C276.26157,171.312137 275.230043,169.735765 274.843179,167.659488 C274.475855,165.688073 274.861186,163.912805 275.999185,162.333629 C277.188378,160.679812 278.946921,159.636042 281.274868,159.202286 L282.753422,158.926794 L284.822544,170.031673 C287.881014,169.092892 289.197259,167.480525 288.771319,165.194523 C288.450887,163.474779 287.14509,162.231613 284.853889,161.46499 L285.836363,158.352363 Z M280.309388,162.93021 C278.362065,164.009165 277.546679,165.398008 277.863203,167.09678 C278.207082,168.94236 279.483571,170.028234 281.69271,170.354435 L280.309388,162.93021 Z M271.200169,149.419246 C272.797263,152.98477 275.079922,154.169738 278.048214,152.974186 L285.8251,149.841854 L287.044557,152.869497 L271.75793,159.02656 L270.538473,155.998918 L272.467853,155.221813 C271.389376,154.828236 270.522403,154.245991 269.866908,153.475058 C269.298813,152.806917 268.763707,151.849519 268.261575,150.602837 L271.200169,149.419246 Z M270.705692,129.440551 C272.71626,128.272285 274.691641,127.914004 276.631895,128.365695 C278.572148,128.817386 280.09959,130.002384 281.214265,131.920724 C282.832688,134.706007 282.82729,137.435516 281.198072,140.109333 L278.561411,138.310501 C279.488692,136.636716 279.496815,135.015911 278.585783,133.448036 C277.964137,132.378192 277.100714,131.720262 275.995487,131.474224 C274.871814,131.238904 273.655178,131.50173 272.345542,132.262711 L271.847514,132.552096 C273.724703,133.065105 275.054486,133.994859 275.836902,135.341386 C276.919423,137.20439 277.178002,139.11434 276.612647,141.071292 C276.039565,143.057408 274.839985,144.580986 273.013872,145.642071 C271.169314,146.713874 269.247774,147.016198 267.249193,146.549052 C265.250612,146.081906 263.704725,144.907626 262.611486,143.026176 C261.818352,141.661203 261.549174,140.115171 261.803945,138.388035 L260.614211,139.079344 L258.97436,136.257184 L270.705692,129.440551 Z M266.938645,135.441464 C265.83191,136.084546 265.104062,136.976259 264.755078,138.116631 C264.413822,139.227838 264.575451,140.355238 265.239969,141.498864 C265.808024,142.47648 266.683039,143.090666 267.865038,143.341441 C269.054765,143.563052 270.202979,143.35232 271.309714,142.709238 C272.361112,142.098311 273.070515,141.217315 273.437945,140.066226 C273.786928,138.925854 273.682753,137.876099 273.125415,136.916929 C272.493051,135.82864 271.617415,135.128459 270.49848,134.816367 C269.379544,134.504274 268.192945,134.712638 266.938645,135.441464 Z M246.769347,124.926656 L264.023738,118.338336 C265.470178,117.806728 266.729712,117.688659 267.802378,117.984127 C268.875045,118.279594 270.049684,119.101252 271.326331,120.449126 L268.929344,122.617138 C268.198003,121.84036 267.647415,121.374734 267.277565,121.220247 C266.760076,120.997939 266.062513,121.053572 265.184854,121.38715 L263.892104,121.866048 L256.836652,136.057219 L254.518381,133.494105 L259.457878,123.546725 L249.087617,127.489771 L246.769347,124.926656 Z" id="core-energy" fill="#FFFFFF"></path>
        <g id="arrows" style="mix-blend-mode: hard-light;" transform="translate(303.419098, 95.476728) rotate(372.000000) translate(-303.419098, -95.476728) translate(274.919098, 59.976728)" stroke="#979797" stroke-width="1.5" stroke-linecap="square">
            <path d="M56.1067731,0.152523117 L31.9976762,29.0001122" id="Line" fill="#D8D8D8"></path>
            <path id="Line-decoration-1" d="M31.9976762,29.0001122 L41.2253696,22.6369625 L36.6214967,18.7893197 L31.9976762,29.0001122 Z" fill="#D8D8D8"></path>
            <path d="M0.319880912,70.4382935 L27.9092492,34.3081827" id="Line" fill="#F3DF00"></path>
            <path id="Line-decoration-1" d="M27.9092492,34.3081827 L18.970385,41.0710746 L23.7390491,44.7124814 L27.9092492,34.3081827 Z" fill="#F3DF00"></path>
        </g>
        <g id="star_2%_opacity" opacity="0.02" transform="translate(64.000000, 51.000000)">
            <g id="Star-Copy-10" opacity="0.686100746" transform="translate(134.778092, 134.871748) rotate(-360.000000) translate(-134.778092, -134.871748) translate(75.278092, 14.371748)">
                <mask id="mask-9" fill="white">
                    <use xlink:href="#path-8"></use>
                </mask>
                <g id="Clip-2"></g>
                <path d="M59.0847435,0.175242918 C59.0847435,22.8725409 48.5112946,85.1153741 -2.84217094e-14,120.268596 C48.5112946,155.429175 59.0847435,217.672008 59.0847435,240.361949 C59.0847435,217.672008 69.6618933,155.429175 118.173188,120.268596 C69.6618933,85.1153741 59.0847435,22.8725409 59.0847435,0.175242918 L186.816867,98.1136966" id="Fill-1" fill="#FFFFFF" mask="url(#mask-9)"></path>
            </g>
            <g id="Star-Copy-10" opacity="0.686100746" transform="translate(134.203497, 134.853336) rotate(-270.000000) translate(-134.203497, -134.853336) translate(74.703497, 14.353336)">
                <mask id="mask-11" fill="white">
                    <use xlink:href="#path-10"></use>
                </mask>
                <g id="Clip-2"></g>
                <path d="M59.0847435,0.175242918 C59.0847435,22.8725409 48.5112946,85.1153741 3.26849658e-13,120.268596 C48.5112946,155.429175 59.0847435,217.672008 59.0847435,240.361949 C59.0847435,217.672008 69.6618933,155.429175 118.173188,120.268596 C69.6618933,85.1153741 59.0847435,22.8725409 59.0847435,0.175242918 L186.816867,98.1136966" id="Fill-1" fill="#FFFFFF" mask="url(#mask-11)"></path>
            </g>
            <g id="Star-Copy-10" opacity="0.686100746" transform="translate(134.093700, 134.562226) rotate(-225.000000) translate(-134.093700, -134.562226) translate(74.593700, 14.062226)">
                <mask id="mask-13" fill="white">
                    <use xlink:href="#path-12"></use>
                </mask>
                <g id="Clip-2"></g>
                <path d="M59.0847435,0.175242918 C59.0847435,22.8725409 48.5112946,85.1153741 -1.98951966e-13,120.268596 C48.5112946,155.429175 59.0847435,217.672008 59.0847435,240.361949 C59.0847435,217.672008 69.6618933,155.429175 118.173188,120.268596 C69.6618933,85.1153741 59.0847435,22.8725409 59.0847435,0.175242918 L186.816867,98.1136966" id="Fill-1" fill="#FFFFFF" mask="url(#mask-13)"></path>
            </g>
            <g id="Star-Copy-10" opacity="0.686100746" transform="translate(134.434032, 134.089913) rotate(-135.000000) translate(-134.434032, -134.089913) translate(74.934032, 13.589913)">
                <mask id="mask-15" fill="white">
                    <use xlink:href="#path-14"></use>
                </mask>
                <g id="Clip-2"></g>
                <path d="M59.0847435,0.175242918 C59.0847435,22.8725409 48.5112946,85.1153741 -9.9475983e-14,120.268596 C48.5112946,155.429175 59.0847435,217.672008 59.0847435,240.361949 C59.0847435,217.672008 69.6618933,155.429175 118.173188,120.268596 C69.6618933,85.1153741 59.0847435,22.8725409 59.0847435,0.175242918 L186.816867,98.1136966" id="Fill-1" fill="#FFFFFF" mask="url(#mask-15)"></path>
            </g>
            <g id="Star-Copy-10" opacity="0.686100746" transform="translate(134.800101, 134.349443) rotate(-68.000000) translate(-134.800101, -134.349443) translate(75.300101, 13.849443)">
                <mask id="mask-17" fill="white">
                    <use xlink:href="#path-16"></use>
                </mask>
                <g id="Clip-2"></g>
                <path d="M59.0847435,0.175242918 C59.0847435,22.8725409 48.5112946,85.1153741 7.10542736e-14,120.268596 C48.5112946,155.429175 59.0847435,217.672008 59.0847435,240.361949 C59.0847435,217.672008 69.6618933,155.429175 118.173188,120.268596 C69.6618933,85.1153741 59.0847435,22.8725409 59.0847435,0.175242918 L186.816867,98.1136966" id="Fill-1" fill="#FFFFFF" mask="url(#mask-17)"></path>
            </g>
            <g id="Star-Copy-10" opacity="0.686100746" transform="translate(134.229912, 135.026275) rotate(68.000000) translate(-134.229912, -135.026275) translate(74.729912, 14.526275)">
                <mask id="mask-19" fill="white">
                    <use xlink:href="#path-18"></use>
                </mask>
                <g id="Clip-2"></g>
                <path d="M59.0847435,0.175242918 C59.0847435,22.8725409 48.5112946,85.1153741 -1.27897692e-13,120.268596 C48.5112946,155.429175 59.0847435,217.672008 59.0847435,240.361949 C59.0847435,217.672008 69.6618933,155.429175 118.173188,120.268596 C69.6618933,85.1153741 59.0847435,22.8725409 59.0847435,0.175242918 L186.816867,98.1136966" id="Fill-1" fill="#FFFFFF" mask="url(#mask-19)"></path>
            </g>
            <g id="Star-Copy-10" opacity="0.686100746" transform="translate(134.028812, 134.493087) rotate(157.000000) translate(-134.028812, -134.493087) translate(74.528812, 13.993087)">
                <mask id="mask-21" fill="white">
                    <use xlink:href="#path-20"></use>
                </mask>
                <g id="Clip-2"></g>
                <path d="M59.0847435,0.175242918 C59.0847435,22.8725409 48.5112946,85.1153741 2.27373675e-13,120.268596 C48.5112946,155.429175 59.0847435,217.672008 59.0847435,240.361949 C59.0847435,217.672008 69.6618933,155.429175 118.173188,120.268596 C69.6618933,85.1153741 59.0847435,22.8725409 59.0847435,0.175242918 L186.816867,98.1136966" id="Fill-1" fill="#FFFFFF" mask="url(#mask-21)"></path>
            </g>
            <g id="Star-Copy-10" opacity="0.686100746" transform="translate(134.183502, 134.232112) rotate(236.000000) translate(-134.183502, -134.232112) translate(74.683502, 13.732112)">
                <mask id="mask-23" fill="white">
                    <use xlink:href="#path-22"></use>
                </mask>
                <g id="Clip-2"></g>
                <path d="M59.0847435,0.175242918 C59.0847435,22.8725409 48.5112946,85.1153741 1.56319402e-13,120.268596 C48.5112946,155.429175 59.0847435,217.672008 59.0847435,240.361949 C59.0847435,217.672008 69.6618933,155.429175 118.173188,120.268596 C69.6618933,85.1153741 59.0847435,22.8725409 59.0847435,0.175242918 L186.816867,98.1136966" id="Fill-1" fill="#FFFFFF" mask="url(#mask-23)"></path>
            </g>
            <g id="Star-Copy-10" opacity="0.686100746" transform="translate(134.494516, 134.563717) rotate(304.000000) translate(-134.494516, -134.563717) translate(74.994516, 14.063717)">
                <mask id="mask-25" fill="white">
                    <use xlink:href="#path-24"></use>
                </mask>
                <g id="Clip-2"></g>
                <path d="M59.0847435,0.175242918 C59.0847435,22.8725409 48.5112946,85.1153741 7.10542736e-14,120.268596 C48.5112946,155.429175 59.0847435,217.672008 59.0847435,240.361949 C59.0847435,217.672008 69.6618933,155.429175 118.173188,120.268596 C69.6618933,85.1153741 59.0847435,22.8725409 59.0847435,0.175242918 L186.816867,98.1136966" id="Fill-1" fill="#FFFFFF" mask="url(#mask-25)"></path>
            </g>
            <g id="Star-Copy-10" opacity="0.686100746" transform="translate(134.437314, 134.412056) rotate(281.000000) translate(-134.437314, -134.412056) translate(74.937314, 13.912056)">
                <mask id="mask-27" fill="white">
                    <use xlink:href="#path-26"></use>
                </mask>
                <g id="Clip-2"></g>
                <path d="M59.0847435,0.175242918 C59.0847435,22.8725409 48.5112946,85.1153741 -4.26325641e-14,120.268596 C48.5112946,155.429175 59.0847435,217.672008 59.0847435,240.361949 C59.0847435,217.672008 69.6618933,155.429175 118.173188,120.268596 C69.6618933,85.1153741 59.0847435,22.8725409 59.0847435,0.175242918 L186.816867,98.1136966" id="Fill-1" fill="#FFFFFF" mask="url(#mask-27)"></path>
            </g>
            <g id="Star-Copy-10" opacity="0.686100746" transform="translate(134.513684, 134.842284) rotate(326.000000) translate(-134.513684, -134.842284) translate(75.013684, 14.342284)">
                <mask id="mask-29" fill="white">
                    <use xlink:href="#path-28"></use>
                </mask>
                <g id="Clip-2"></g>
                <path d="M59.0847435,0.175242918 C59.0847435,22.8725409 48.5112946,85.1153741 -1.52766688e-13,120.268596 C48.5112946,155.429175 59.0847435,217.672008 59.0847435,240.361949 C59.0847435,217.672008 69.6618933,155.429175 118.173188,120.268596 C69.6618933,85.1153741 59.0847435,22.8725409 59.0847435,0.175242918 L186.816867,98.1136966" id="Fill-1" fill="#FFFFFF" mask="url(#mask-29)"></path>
            </g>
            <g id="Star-Copy-10" opacity="0.686100746" transform="translate(134.103264, 135.369241) rotate(392.000000) translate(-134.103264, -135.369241) translate(74.603264, 14.869241)">
                <mask id="mask-31" fill="white">
                    <use xlink:href="#path-30"></use>
                </mask>
                <g id="Clip-2"></g>
                <path d="M59.0847435,0.175242918 C59.0847435,22.8725409 48.5112946,85.1153741 -1.70530257e-13,120.268596 C48.5112946,155.429175 59.0847435,217.672008 59.0847435,240.361949 C59.0847435,217.672008 69.6618933,155.429175 118.173188,120.268596 C69.6618933,85.1153741 59.0847435,22.8725409 59.0847435,0.175242918 L186.816867,98.1136966" id="Fill-1" fill="#FFFFFF" mask="url(#mask-31)"></path>
            </g>
            <g id="Star-Copy-10" opacity="0.686100746" transform="translate(134.097155, 135.169091) rotate(440.000000) translate(-134.097155, -135.169091) translate(74.597155, 14.669091)">
                <mask id="mask-33" fill="white">
                    <use xlink:href="#path-32"></use>
                </mask>
                <g id="Clip-2"></g>
                <path d="M59.0847435,0.175242918 C59.0847435,22.8725409 48.5112946,85.1153741 8.52651283e-14,120.268596 C48.5112946,155.429175 59.0847435,217.672008 59.0847435,240.361949 C59.0847435,217.672008 69.6618933,155.429175 118.173188,120.268596 C69.6618933,85.1153741 59.0847435,22.8725409 59.0847435,0.175242918 L186.816867,98.1136966" id="Fill-1" fill="#FFFFFF" mask="url(#mask-33)"></path>
            </g>
            <g id="Star-Copy-10" opacity="0.686100746" transform="translate(133.830401, 134.671268) rotate(529.000000) translate(-133.830401, -134.671268) translate(74.330401, 14.171268)">
                <mask id="mask-35" fill="white">
                    <use xlink:href="#path-34"></use>
                </mask>
                <g id="Clip-2"></g>
                <path d="M59.0847435,0.175242918 C59.0847435,22.8725409 48.5112946,85.1153741 4.40536496e-13,120.268596 C48.5112946,155.429175 59.0847435,217.672008 59.0847435,240.361949 C59.0847435,217.672008 69.6618933,155.429175 118.173188,120.268596 C69.6618933,85.1153741 59.0847435,22.8725409 59.0847435,0.175242918 L186.816867,98.1136966" id="Fill-1" fill="#FFFFFF" mask="url(#mask-35)"></path>
            </g>
            <g id="Star-Copy-10" opacity="0.686100746" transform="translate(133.464564, 136.504653) rotate(549.000000) translate(-133.464564, -136.504653) translate(73.964564, 18.004653)">
                <mask id="mask-37" fill="white">
                    <use xlink:href="#path-36"></use>
                </mask>
                <g id="Clip-2"></g>
                <path d="M59.0847435,0.17227129 C59.0847435,22.4846867 48.5112946,83.6720561 -1.13686838e-13,118.229178 C48.5112946,152.793532 59.0847435,213.980902 59.0847435,236.286085 C59.0847435,213.980902 69.6618933,152.793532 118.173188,118.229178 C69.6618933,83.6720561 59.0847435,22.4846867 59.0847435,0.17227129 L186.816867,96.4499635" id="Fill-1" fill="#FFFFFF" mask="url(#mask-37)"></path>
            </g>
            <g id="Star-Copy-10" opacity="0.686100746" transform="translate(133.671134, 134.080267) rotate(199.000000) translate(-133.671134, -134.080267) translate(74.171134, 13.580267)">
                <mask id="mask-39" fill="white">
                    <use xlink:href="#path-38"></use>
                </mask>
                <g id="Clip-2"></g>
                <path d="M59.0847435,0.175242918 C59.0847435,22.8725409 48.5112946,85.1153741 1.27897692e-13,120.268596 C48.5112946,155.429175 59.0847435,217.672008 59.0847435,240.361949 C59.0847435,217.672008 69.6618933,155.429175 118.173188,120.268596 C69.6618933,85.1153741 59.0847435,22.8725409 59.0847435,0.175242918 L186.816867,98.1136966" id="Fill-1" fill="#FFFFFF" mask="url(#mask-39)"></path>
            </g>
        </g>
    </g>
</svg>